<mxfile host="app.diagrams.net" modified="2023-09-26T12:30:19.927Z" agent="Mozilla/5.0 (Windows NT 10.0; Win64; x64; rv:109.0) Gecko/20100101 Firefox/117.0" etag="uqF2cJ-aw1VdVdwaTqmO" version="21.8.2" type="device">
  <diagram name="Pagina-1" id="WdNuLCoif8DOCdPfeQE8">
    <mxGraphModel dx="1434" dy="856" grid="1" gridSize="10" guides="1" tooltips="1" connect="1" arrows="1" fold="1" page="1" pageScale="1" pageWidth="827" pageHeight="1169" math="0" shadow="0">
      <root>
        <mxCell id="0" />
        <mxCell id="1" parent="0" />
        <mxCell id="fYpyqveSxgnmdyYEeGbs-11" style="rounded=0;orthogonalLoop=1;jettySize=auto;html=1;" edge="1" parent="1" source="fYpyqveSxgnmdyYEeGbs-4" target="fYpyqveSxgnmdyYEeGbs-5">
          <mxGeometry relative="1" as="geometry" />
        </mxCell>
        <mxCell id="fYpyqveSxgnmdyYEeGbs-16" value="shuffle_a" style="edgeLabel;html=1;align=center;verticalAlign=middle;resizable=0;points=[];" vertex="1" connectable="0" parent="fYpyqveSxgnmdyYEeGbs-11">
          <mxGeometry x="0.1384" y="4" relative="1" as="geometry">
            <mxPoint x="-34" y="-3" as="offset" />
          </mxGeometry>
        </mxCell>
        <mxCell id="fYpyqveSxgnmdyYEeGbs-12" style="rounded=0;orthogonalLoop=1;jettySize=auto;html=1;" edge="1" parent="1" source="fYpyqveSxgnmdyYEeGbs-4" target="fYpyqveSxgnmdyYEeGbs-7">
          <mxGeometry relative="1" as="geometry" />
        </mxCell>
        <mxCell id="fYpyqveSxgnmdyYEeGbs-20" value="shuffle_b" style="edgeLabel;html=1;align=center;verticalAlign=middle;resizable=0;points=[];" vertex="1" connectable="0" parent="fYpyqveSxgnmdyYEeGbs-12">
          <mxGeometry x="0.0691" y="2" relative="1" as="geometry">
            <mxPoint x="-33" y="10" as="offset" />
          </mxGeometry>
        </mxCell>
        <mxCell id="fYpyqveSxgnmdyYEeGbs-4" value="q0" style="ellipse;whiteSpace=wrap;html=1;aspect=fixed;" vertex="1" parent="1">
          <mxGeometry x="120" y="160" width="40" height="40" as="geometry" />
        </mxCell>
        <mxCell id="fYpyqveSxgnmdyYEeGbs-15" style="rounded=0;orthogonalLoop=1;jettySize=auto;html=1;" edge="1" parent="1" source="fYpyqveSxgnmdyYEeGbs-7" target="fYpyqveSxgnmdyYEeGbs-13">
          <mxGeometry relative="1" as="geometry" />
        </mxCell>
        <mxCell id="fYpyqveSxgnmdyYEeGbs-19" value="shuffle_a" style="edgeLabel;html=1;align=center;verticalAlign=middle;resizable=0;points=[];" vertex="1" connectable="0" parent="fYpyqveSxgnmdyYEeGbs-15">
          <mxGeometry x="-0.0509" relative="1" as="geometry">
            <mxPoint x="32" y="9" as="offset" />
          </mxGeometry>
        </mxCell>
        <mxCell id="fYpyqveSxgnmdyYEeGbs-7" value="q2" style="ellipse;whiteSpace=wrap;html=1;aspect=fixed;" vertex="1" parent="1">
          <mxGeometry x="200" y="240" width="40" height="40" as="geometry" />
        </mxCell>
        <mxCell id="fYpyqveSxgnmdyYEeGbs-14" style="rounded=0;orthogonalLoop=1;jettySize=auto;html=1;" edge="1" parent="1" source="fYpyqveSxgnmdyYEeGbs-5" target="fYpyqveSxgnmdyYEeGbs-13">
          <mxGeometry relative="1" as="geometry" />
        </mxCell>
        <mxCell id="fYpyqveSxgnmdyYEeGbs-18" value="shuffle_b" style="edgeLabel;html=1;align=center;verticalAlign=middle;resizable=0;points=[];" vertex="1" connectable="0" parent="fYpyqveSxgnmdyYEeGbs-14">
          <mxGeometry x="-0.032" y="2" relative="1" as="geometry">
            <mxPoint x="31" y="-7" as="offset" />
          </mxGeometry>
        </mxCell>
        <mxCell id="fYpyqveSxgnmdyYEeGbs-5" value="q1" style="ellipse;whiteSpace=wrap;html=1;aspect=fixed;" vertex="1" parent="1">
          <mxGeometry x="200" y="80" width="40" height="40" as="geometry" />
        </mxCell>
        <mxCell id="fYpyqveSxgnmdyYEeGbs-13" value="q3" style="ellipse;whiteSpace=wrap;html=1;aspect=fixed;" vertex="1" parent="1">
          <mxGeometry x="280" y="160" width="40" height="40" as="geometry" />
        </mxCell>
      </root>
    </mxGraphModel>
  </diagram>
</mxfile>
